#N canvas 0 0 1112 1131 10;
#X declare -path build -path .build;
#X declare -lib xlab;
#X declare -lib p2p~;
#X declare -lib Gem;
#X msg 47 233 disconnect;
#X obj 24 497 change;
#X obj 24 519 nbx 5 16 -1e+37 1e+37 0 0 empty empty empty 0 -9 0 10 #fcfcfc #000000 #000000 0 256;
#X msg 61 279 stream \$1;
#X obj 61 256 tgl 18 0 empty empty empty 0 -9 0 10 #fcfcfc #000000 #000000 0 1;
#X obj 24 98 bng 18 250 50 0 empty empty empty 0 -9 0 10 #fcfcfc #000000 #000000;
#N canvas 0 0 925 1132 osc 0;
#X obj 19 102 osc~;
#X obj 166 191 line~;
#X obj 19 7 inlet;
#X obj 19 33 t b b, f 25;
#X obj 166 64 t b b, f 10;
#X msg 223 140 0 30;
#X obj 19 258 *~, f 14;
#X obj 19 280 outlet~;
#X obj 79 93 nbx 5 16 -1e+37 1e+37 0 0 empty empty empty 0 -9 0 10 #fcfcfc #000000 #000000 0 256;
#X obj 223 118 delay 100 1 msec;
#X msg 166 118 0.4 30;
#X obj 19 55 expr random(300 \, 800);
#X connect 0 0 6 0;
#X connect 1 0 6 1;
#X connect 2 0 3 0;
#X connect 3 0 11 0;
#X connect 3 1 4 0;
#X connect 4 0 10 0;
#X connect 4 1 9 0;
#X connect 5 0 1 0;
#X connect 6 0 7 0;
#X connect 9 0 5 0;
#X connect 10 0 1 0;
#X connect 11 0 0 0;
#X connect 11 0 8 0;
#X restore 24 121 pd osc;
#X obj 24 463 route peers json, f 24;
#X obj 24 14 declare -path build -path .build;
#X msg 68 301 message hello from pd;
#X obj 244 15 declare -lib xlab;
#X obj 365 181 cnv 18 20 20 empty empty 1 6 10 0 10 #dfdfdf #ff0400 0;
#X obj 81 255 cnv 18 20 20 empty empty 2 6 10 0 10 #dfdfdf #ff0400 0;
#X obj 44 97 cnv 18 20 20 empty empty 3 6 10 0 10 #dfdfdf #ff0400 0;
#X text 66 99 Send Audio;
#X obj 204 300 cnv 18 20 20 empty empty 4 6 10 0 10 #dfdfdf #ff0400 0;
#X obj 24 147 snake~ in 1;
#X text 341 272 Get type key on json, f 11;
#X msg 37 177 connect wss://p2p-signaling.charlesneimog.workers.dev node-alpha PureData;
#X obj 24 74 metro 220;
#X obj 24 49 tgl 18 0 empty empty empty 0 -9 0 10 #fcfcfc #000000 #000000 0 1;
#X obj 95 541 print;
#X obj 95 498 route user_4444;
#X obj 95 519 p2p type message;
#X obj 244 34 declare -lib p2p~;
#X obj 24 361 p2p~ -o 2 -r -v, f 60;
#X obj 262 415 saf.meter~ -width 8 -height 120 -frames 20 -inchs 1;
#X obj 516 189 declare -lib Gem;
#X obj 436 413 print;
#X obj 381 416 saf.meter~ -width 8 -height 120 -frames 20 -inchs 1;
#X obj 517 213 _gemwin;
#X obj 143 390 pix_texture;
#X obj 264 329 gemhead;
#X obj 143 426 rectangle 3 5.33;
#X connect 0 0 25 0;
#X connect 1 0 2 0;
#X connect 3 0 25 0;
#X connect 4 0 3 0;
#X connect 5 0 6 0;
#X connect 6 0 16 0;
#X connect 7 0 1 0;
#X connect 7 1 22 0;
#X connect 9 0 25 0;
#X connect 16 0 25 0;
#X connect 18 0 25 0;
#X connect 19 0 5 0;
#X connect 20 0 19 0;
#X connect 22 0 23 0;
#X connect 23 0 21 0;
#X connect 25 0 7 0;
#X connect 25 1 31 0;
#X connect 25 2 26 0;
#X connect 25 3 29 0;
#X connect 31 0 33 0;
#X connect 32 0 25 0;
