#N canvas 0 0 925 1131 10;
#X declare -path ../../build;
#X obj 3 4 declare -path ../../build;
#X obj 4 93 p2p~, f 16;
#X msg 4 52 connect wss://p2p-signaling.charlesneimog.workers.dev node-alpha PureData;
#X obj 4 28 loadbang;
#X obj 4 121 route peers json, f 24;
#X obj 74 170 unpack s s;
#X obj 131 199 p2p coords;
#X obj 131 227 unpack s f f, f 26;
#X listbox 131 261 11 0 0 0 - - - 0;
#X floatatom 208 261 10 0 0 0 - - - 0;
#X floatatom 284 296 10 0 0 0 - - - 0;
#X connect 1 0 4 0;
#X connect 2 0 1 0;
#X connect 3 0 2 0;
#X connect 4 1 5 0;
#X connect 5 1 6 0;
#X connect 6 0 7 0;
#X connect 7 0 8 0;
#X connect 7 1 9 0;
#X connect 7 2 10 0;
